<mxfile host="65bd71144e">
    <diagram id="VdJQXFleTinv3W6w0sz0" name="Page-1">
        <mxGraphModel dx="1143" dy="654" grid="1" gridSize="10" guides="1" tooltips="1" connect="1" arrows="1" fold="1" page="1" pageScale="1" pageWidth="850" pageHeight="1100" math="0" shadow="0">
            <root>
                <mxCell id="0"/>
                <mxCell id="1" parent="0"/>
                <mxCell id="44" value="" style="rounded=0;whiteSpace=wrap;html=1;dashed=1;" vertex="1" parent="1">
                    <mxGeometry x="10" y="70" width="640" height="350" as="geometry"/>
                </mxCell>
                <mxCell id="46" value="" style="rounded=0;whiteSpace=wrap;html=1;dashed=1;" vertex="1" parent="1">
                    <mxGeometry x="110" y="190" width="140" height="190" as="geometry"/>
                </mxCell>
                <mxCell id="34" style="edgeStyle=orthogonalEdgeStyle;html=1;entryX=0;entryY=0.5;entryDx=0;entryDy=0;" edge="1" parent="1" source="2" target="32">
                    <mxGeometry relative="1" as="geometry"/>
                </mxCell>
                <mxCell id="2" value="ADC&lt;br&gt;with 2 chanells" style="whiteSpace=wrap;html=1;" vertex="1" parent="1">
                    <mxGeometry x="130" y="220" width="100" height="60" as="geometry"/>
                </mxCell>
                <mxCell id="9" style="edgeStyle=none;html=1;entryX=0;entryY=0.5;entryDx=0;entryDy=0;" edge="1" parent="1" source="5" target="2">
                    <mxGeometry relative="1" as="geometry"/>
                </mxCell>
                <mxCell id="5" value="Integrator" style="whiteSpace=wrap;html=1;" vertex="1" parent="1">
                    <mxGeometry x="20" y="220" width="80" height="60" as="geometry"/>
                </mxCell>
                <mxCell id="39" style="edgeStyle=orthogonalEdgeStyle;html=1;entryX=0;entryY=0.5;entryDx=0;entryDy=0;" edge="1" parent="1" source="6" target="38">
                    <mxGeometry relative="1" as="geometry"/>
                </mxCell>
                <mxCell id="6" value="ADC&lt;br&gt;with 2 chanells" style="whiteSpace=wrap;html=1;" vertex="1" parent="1">
                    <mxGeometry x="130" y="300" width="100" height="60" as="geometry"/>
                </mxCell>
                <mxCell id="10" style="edgeStyle=none;html=1;entryX=0;entryY=0.5;entryDx=0;entryDy=0;" edge="1" parent="1" source="7" target="6">
                    <mxGeometry relative="1" as="geometry"/>
                </mxCell>
                <mxCell id="7" value="Integrator" style="whiteSpace=wrap;html=1;" vertex="1" parent="1">
                    <mxGeometry x="20" y="300" width="80" height="60" as="geometry"/>
                </mxCell>
                <mxCell id="17" style="edgeStyle=orthogonalEdgeStyle;html=1;" edge="1" parent="1" source="11">
                    <mxGeometry relative="1" as="geometry">
                        <mxPoint x="580" y="290" as="targetPoint"/>
                        <Array as="points">
                            <mxPoint x="560" y="290"/>
                            <mxPoint x="560" y="290"/>
                        </Array>
                    </mxGeometry>
                </mxCell>
                <mxCell id="19" value="DOUT[12:0]" style="edgeLabel;html=1;align=center;verticalAlign=middle;resizable=0;points=[];" vertex="1" connectable="0" parent="17">
                    <mxGeometry x="0.451" y="1" relative="1" as="geometry">
                        <mxPoint x="4" y="11" as="offset"/>
                    </mxGeometry>
                </mxCell>
                <mxCell id="18" style="edgeStyle=orthogonalEdgeStyle;html=1;" edge="1" parent="1" source="11">
                    <mxGeometry relative="1" as="geometry">
                        <mxPoint x="580" y="320" as="targetPoint"/>
                        <Array as="points">
                            <mxPoint x="550" y="320"/>
                            <mxPoint x="550" y="320"/>
                        </Array>
                    </mxGeometry>
                </mxCell>
                <mxCell id="20" value="DV, EVout" style="edgeLabel;html=1;align=center;verticalAlign=middle;resizable=0;points=[];" vertex="1" connectable="0" parent="18">
                    <mxGeometry x="0.5121" relative="1" as="geometry">
                        <mxPoint x="2" y="10" as="offset"/>
                    </mxGeometry>
                </mxCell>
                <mxCell id="11" value="fit_pm&lt;br&gt;chanell&lt;br&gt;logic" style="whiteSpace=wrap;html=1;" vertex="1" parent="1">
                    <mxGeometry x="460" y="240" width="70" height="100" as="geometry"/>
                </mxCell>
                <mxCell id="23" value="&lt;i&gt;LVDS DDR data&lt;/i&gt;" style="text;html=1;align=center;verticalAlign=middle;resizable=0;points=[];autosize=1;strokeColor=none;fillColor=none;" vertex="1" parent="1">
                    <mxGeometry x="110" y="190" width="110" height="30" as="geometry"/>
                </mxCell>
                <mxCell id="24" value="" style="endArrow=classic;html=1;entryX=1;entryY=0.25;entryDx=0;entryDy=0;" edge="1" parent="1" target="11">
                    <mxGeometry width="50" height="50" relative="1" as="geometry">
                        <mxPoint x="580" y="265" as="sourcePoint"/>
                        <mxPoint x="540" y="220" as="targetPoint"/>
                    </mxGeometry>
                </mxCell>
                <mxCell id="25" value="EV, ENA" style="edgeLabel;html=1;align=center;verticalAlign=middle;resizable=0;points=[];" vertex="1" connectable="0" parent="24">
                    <mxGeometry x="-0.3644" y="-1" relative="1" as="geometry">
                        <mxPoint x="6" y="11" as="offset"/>
                    </mxGeometry>
                </mxCell>
                <mxCell id="27" style="edgeStyle=orthogonalEdgeStyle;html=1;entryX=0.5;entryY=1;entryDx=0;entryDy=0;" edge="1" parent="1" source="26" target="11">
                    <mxGeometry relative="1" as="geometry">
                        <Array as="points">
                            <mxPoint x="750" y="400"/>
                            <mxPoint x="495" y="400"/>
                        </Array>
                    </mxGeometry>
                </mxCell>
                <mxCell id="28" value="fit_pm_chanell_freq" style="edgeLabel;html=1;align=center;verticalAlign=middle;resizable=0;points=[];" vertex="1" connectable="0" parent="27">
                    <mxGeometry x="0.5296" y="2" relative="1" as="geometry">
                        <mxPoint x="180" y="8" as="offset"/>
                    </mxGeometry>
                </mxCell>
                <mxCell id="29" style="edgeStyle=orthogonalEdgeStyle;html=1;entryX=0.5;entryY=1;entryDx=0;entryDy=0;" edge="1" parent="1" source="26" target="6">
                    <mxGeometry relative="1" as="geometry">
                        <Array as="points">
                            <mxPoint x="780" y="450"/>
                            <mxPoint x="180" y="450"/>
                        </Array>
                    </mxGeometry>
                </mxCell>
                <mxCell id="30" value="240MHz" style="edgeLabel;html=1;align=center;verticalAlign=middle;resizable=0;points=[];" vertex="1" connectable="0" parent="29">
                    <mxGeometry x="0.546" relative="1" as="geometry">
                        <mxPoint x="-56" y="-10" as="offset"/>
                    </mxGeometry>
                </mxCell>
                <mxCell id="31" style="edgeStyle=orthogonalEdgeStyle;html=1;entryX=0.5;entryY=1;entryDx=0;entryDy=0;" edge="1" parent="1" source="26" target="7">
                    <mxGeometry relative="1" as="geometry">
                        <Array as="points">
                            <mxPoint x="810" y="500"/>
                            <mxPoint x="60" y="500"/>
                            <mxPoint x="60" y="360"/>
                        </Array>
                    </mxGeometry>
                </mxCell>
                <mxCell id="45" value="20MHz, synchronized to PLL_CLK" style="edgeLabel;html=1;align=center;verticalAlign=middle;resizable=0;points=[];" vertex="1" connectable="0" parent="31">
                    <mxGeometry x="0.6608" y="-2" relative="1" as="geometry">
                        <mxPoint x="57" y="-8" as="offset"/>
                    </mxGeometry>
                </mxCell>
                <mxCell id="52" style="edgeStyle=orthogonalEdgeStyle;html=1;entryX=1;entryY=0.5;entryDx=0;entryDy=0;" edge="1" parent="1" source="26" target="51">
                    <mxGeometry relative="1" as="geometry">
                        <Array as="points">
                            <mxPoint x="750" y="400"/>
                            <mxPoint x="620" y="400"/>
                            <mxPoint x="620" y="170"/>
                        </Array>
                    </mxGeometry>
                </mxCell>
                <mxCell id="26" value="MMCM" style="whiteSpace=wrap;html=1;" vertex="1" parent="1">
                    <mxGeometry x="720" y="250" width="120" height="60" as="geometry"/>
                </mxCell>
                <mxCell id="35" style="edgeStyle=orthogonalEdgeStyle;html=1;entryX=0;entryY=0.5;entryDx=0;entryDy=0;" edge="1" parent="1" source="32" target="33">
                    <mxGeometry relative="1" as="geometry"/>
                </mxCell>
                <mxCell id="32" value="IBUFDS" style="whiteSpace=wrap;html=1;" vertex="1" parent="1">
                    <mxGeometry x="290" y="235" width="60" height="30" as="geometry"/>
                </mxCell>
                <mxCell id="37" style="edgeStyle=orthogonalEdgeStyle;html=1;entryX=0;entryY=0.25;entryDx=0;entryDy=0;" edge="1" parent="1" source="33" target="11">
                    <mxGeometry relative="1" as="geometry"/>
                </mxCell>
                <mxCell id="41" style="edgeStyle=orthogonalEdgeStyle;html=1;entryX=0;entryY=0.5;entryDx=0;entryDy=0;" edge="1" parent="1" source="38" target="40">
                    <mxGeometry relative="1" as="geometry"/>
                </mxCell>
                <mxCell id="33" value="IDDRE1" style="whiteSpace=wrap;html=1;" vertex="1" parent="1">
                    <mxGeometry x="370" y="235" width="60" height="30" as="geometry"/>
                </mxCell>
                <mxCell id="38" value="IBUFDS" style="whiteSpace=wrap;html=1;" vertex="1" parent="1">
                    <mxGeometry x="290" y="315" width="60" height="30" as="geometry"/>
                </mxCell>
                <mxCell id="42" style="edgeStyle=orthogonalEdgeStyle;html=1;entryX=0;entryY=0.75;entryDx=0;entryDy=0;" edge="1" parent="1" source="40" target="11">
                    <mxGeometry relative="1" as="geometry"/>
                </mxCell>
                <mxCell id="40" value="IDDRE1" style="whiteSpace=wrap;html=1;" vertex="1" parent="1">
                    <mxGeometry x="370" y="315" width="60" height="30" as="geometry"/>
                </mxCell>
                <mxCell id="47" value="&lt;i&gt;Chanell from 1 to 12&lt;/i&gt;" style="text;html=1;align=center;verticalAlign=middle;resizable=0;points=[];autosize=1;strokeColor=none;fillColor=none;" vertex="1" parent="1">
                    <mxGeometry x="10" y="70" width="130" height="30" as="geometry"/>
                </mxCell>
                <mxCell id="53" style="edgeStyle=orthogonalEdgeStyle;html=1;entryX=0.5;entryY=0;entryDx=0;entryDy=0;" edge="1" parent="1" source="51" target="11">
                    <mxGeometry relative="1" as="geometry">
                        <Array as="points">
                            <mxPoint x="495" y="200"/>
                            <mxPoint x="495" y="200"/>
                        </Array>
                    </mxGeometry>
                </mxCell>
                <mxCell id="54" value="STR" style="edgeLabel;html=1;align=center;verticalAlign=middle;resizable=0;points=[];" vertex="1" connectable="0" parent="53">
                    <mxGeometry x="-0.1612" y="3" relative="1" as="geometry">
                        <mxPoint x="12" y="3" as="offset"/>
                    </mxGeometry>
                </mxCell>
                <mxCell id="51" value="Time gate circuit" style="whiteSpace=wrap;html=1;" vertex="1" parent="1">
                    <mxGeometry x="460" y="140" width="70" height="60" as="geometry"/>
                </mxCell>
                <mxCell id="60" style="edgeStyle=orthogonalEdgeStyle;html=1;entryX=0;entryY=0.5;entryDx=0;entryDy=0;" edge="1" parent="1" source="58" target="51">
                    <mxGeometry relative="1" as="geometry">
                        <Array as="points">
                            <mxPoint x="250" y="140"/>
                            <mxPoint x="250" y="170"/>
                        </Array>
                    </mxGeometry>
                </mxCell>
                <mxCell id="58" value="Constant fraction discriminator" style="whiteSpace=wrap;html=1;" vertex="1" parent="1">
                    <mxGeometry x="130" y="110" width="100" height="60" as="geometry"/>
                </mxCell>
                <mxCell id="62" value="" style="endArrow=none;dashed=1;html=1;endSize=10;strokeWidth=3;" edge="1" parent="1">
                    <mxGeometry width="50" height="50" relative="1" as="geometry">
                        <mxPoint x="270" y="550" as="sourcePoint"/>
                        <mxPoint x="270" y="20" as="targetPoint"/>
                    </mxGeometry>
                </mxCell>
                <mxCell id="63" value="&lt;font style=&quot;font-size: 20px;&quot;&gt;FPGA&lt;/font&gt;" style="text;html=1;align=center;verticalAlign=middle;resizable=0;points=[];autosize=1;strokeColor=none;fillColor=none;" vertex="1" parent="1">
                    <mxGeometry x="290" y="510" width="80" height="40" as="geometry"/>
                </mxCell>
                <mxCell id="64" value="&lt;font style=&quot;font-size: 20px;&quot;&gt;External circuits&lt;/font&gt;" style="text;html=1;align=center;verticalAlign=middle;resizable=0;points=[];autosize=1;strokeColor=none;fillColor=none;strokeWidth=1;" vertex="1" parent="1">
                    <mxGeometry x="100" y="510" width="160" height="40" as="geometry"/>
                </mxCell>
                <mxCell id="65" value="" style="endArrow=classic;html=1;strokeWidth=1;endSize=10;entryX=0.5;entryY=0;entryDx=0;entryDy=0;edgeStyle=orthogonalEdgeStyle;" edge="1" parent="1" target="26">
                    <mxGeometry width="50" height="50" relative="1" as="geometry">
                        <mxPoint x="130" y="40" as="sourcePoint"/>
                        <mxPoint x="360" y="240" as="targetPoint"/>
                    </mxGeometry>
                </mxCell>
                <mxCell id="66" value="PLL_CLK" style="edgeLabel;html=1;align=center;verticalAlign=middle;resizable=0;points=[];" vertex="1" connectable="0" parent="65">
                    <mxGeometry x="-0.3673" y="-4" relative="1" as="geometry">
                        <mxPoint x="-302" y="-4" as="offset"/>
                    </mxGeometry>
                </mxCell>
            </root>
        </mxGraphModel>
    </diagram>
</mxfile>